<svg width="21" height="20" viewBox="0 0 21 20" fill="none" xmlns="http://www.w3.org/2000/svg">
    <path d="M14.4014 0H6.90137C3.45012 0 0.651367 2.79875 0.651367 6.25V13.75C0.651367 17.2013 3.45012 20 6.90137 20H14.4014C17.8526 20 20.6514 17.2013 20.6514 13.75V6.25C20.6514 2.79875 17.8526 0 14.4014 0ZM18.7764 13.75C18.7764 16.1625 16.8139 18.125 14.4014 18.125H6.90137C4.48887 18.125 2.52637 16.1625 2.52637 13.75V6.25C2.52637 3.8375 4.48887 1.875 6.90137 1.875H14.4014C16.8139 1.875 18.7764 3.8375 18.7764 6.25V13.75Z" fill="#fff"/>
    <path d="M10.6514 5C7.89012 5 5.65137 7.23875 5.65137 10C5.65137 12.7613 7.89012 15 10.6514 15C13.4126 15 15.6514 12.7613 15.6514 10C15.6514 7.23875 13.4126 5 10.6514 5ZM10.6514 13.125C8.92887 13.125 7.52637 11.7225 7.52637 10C7.52637 8.27625 8.92887 6.875 10.6514 6.875C12.3739 6.875 13.7764 8.27625 13.7764 10C13.7764 11.7225 12.3739 13.125 10.6514 13.125Z" fill="#fff"/>
    <path d="M16.0264 5.29125C16.3943 5.29125 16.6926 4.99296 16.6926 4.625C16.6926 4.25704 16.3943 3.95875 16.0264 3.95875C15.6584 3.95875 15.3601 4.25704 15.3601 4.625C15.3601 4.99296 15.6584 5.29125 16.0264 5.29125Z" fill="#fff"/>
</svg>
