<svg version="1.1" id="canvas" xmlns="http://www.w3.org/2000/svg" xmlns:xlink="http://www.w3.org/1999/xlink" x="0px" y="0px" width="71px" height="72px" viewBox="0 0 77 75" enable-background="new 0 0 77 75" xml:space="preserve">
    <g class="logo">
        <rect fill-rule="evenodd" clip-rule="evenodd" fill="transparent" width="77" height="75"></rect>
        <g class="m3">
            <path fill-rule="evenodd" clip-rule="evenodd" fill="#C21617" d="M16.792,50.998c3.109,0,6.219-1.741,6.841-5.411l4.54-25.561
        H19.28l1.928-10.759H43.41l-5.97,33.584h0.124c-0.124,7.027,2.675,8.022,4.603,8.147c3.11,0,6.219-1.741,6.779-5.411l4.603-25.561
        h-8.894l1.928-10.759h16.481C57.951,4.581,51.579,1.3,44.494,0H30.791C13.279,3.217,0,18.566,0,37.004
        c0,2.923,0.311,5.722,0.933,8.396l11.257-2.55C12.065,49.878,14.864,50.873,16.792,50.998z"></path>
            <path fill-rule="evenodd" clip-rule="evenodd" fill="#B2B1AE" d="M67.79,14.553l-5.473,31.034
        c-2.053,11.506-12.251,17.414-21.146,17.414c-4.602,0-9.329-0.871-12.438-4.229c-3.855,2.799-8.521,4.229-12.874,4.229
        c-2.052,0-4.104-0.187-6.033-0.622c6.842,7.525,16.792,12.252,27.8,12.252c20.772,0,37.626-16.854,37.626-37.626
        C75.253,28.546,72.517,20.772,67.79,14.553z"></path>
            <path fill-rule="evenodd" clip-rule="evenodd" fill="#FFFFFF" d="M28.733,58.771c3.11,3.358,7.836,4.229,12.438,4.229
        c8.832,0,19.093-5.908,21.146-17.414l5.473-31.034c-1.43-1.928-2.985-3.669-4.727-5.286H46.582l-1.928,10.759h8.894l-4.603,25.561
        c-0.56,3.67-3.669,5.411-6.779,5.411c-1.928-0.187-4.727-1.183-4.603-8.21l-0.124,0.063l5.97-33.584H21.208L19.28,20.026h8.894
        l-4.54,25.561c-0.622,3.67-3.732,5.411-6.841,5.411c-1.928-0.187-4.727-1.183-4.602-8.21L0.933,45.4
        c1.493,6.405,4.54,12.252,8.831,16.917c1.99,0.497,4.042,0.684,6.095,0.684C20.212,63.001,24.877,61.57,28.733,58.771z"></path>
        </g>
    </g>
</svg>