<svg width="72" height="30" viewBox="0 0 72 30" fill="none" xmlns="http://www.w3.org/2000/svg">
<path d="M30.5353 20.5471L29.2505 21.3339L30.0447 20.0536L31.3311 19.2653L30.5353 20.5471Z" fill="#D1B87C"/>
<path d="M8.48229 26.5093L5.20508 28.3372L7.24034 25.1844L10.5214 23.3529L8.48229 26.5093Z" fill="#D1B87C"/>
<path d="M24.5546 16.7647L29.8534 10.3435L24.9664 5.45605H20.8418L15.3501 8.67396L17.3614 5.45605H8.60388L0.424805 13.6388L1.42094 14.635L8.18475 10.8285L3.85132 17.0715L8.69445 21.9137L7.07907 23.5394L13.6063 20.2937L11.4605 24.6741L16.7859 30L32.145 14.6379L24.5546 16.7647ZM10.4632 9.28453L9.026 10.253L10.0017 8.82149L11.1482 8.14227L10.4632 9.28453ZM15.9183 17.961L14.6272 18.7834L15.6014 17.498L17.4796 16.0884L15.9183 17.961ZM21.8087 19.8614L18.1442 22.7944L21.0886 19.1398L23.2956 17.6645L21.8087 19.8614Z" fill="#D1B87C"/>
<path d="M1.89998 17.1258L0 18.31L1.364 16.5346L3.26635 15.3483L1.89998 17.1258Z" fill="#D1B87C"/>
<path d="M32.5683 11.7176L30.4727 12.6982L31.8744 10.8573L33.9726 9.87463L32.5683 11.7176Z" fill="#D1B87C"/>
<path d="M22.0737 2.90065L18.9897 5.04582L21.3815 2.1488L24.4694 0L22.0737 2.90065Z" fill="#D1B87C"/>
<path d="M4.53742 6.73249L3.25049 7.51466L4.0278 6.2247L5.31623 5.44104L4.53742 6.73249Z" fill="#D1B87C"/>
<path d="M70.8869 13.6694C70.3879 12.6507 69.6913 11.8191 68.7972 11.185C67.8615 10.5197 66.7178 10.1351 65.3767 10.0416C65.0544 10.0104 64.3162 10 63.1414 10H57.8807C58.4837 10.0312 58.9412 10.395 59.2531 10.6549C59.5026 10.8628 59.6689 11.1331 59.7521 11.4553C59.8353 11.7775 59.8769 12.2973 59.8769 12.9938V15.5613C59.8769 15.6029 59.8769 15.6341 59.8769 15.6757C59.8769 17.2453 59.357 19.5738 58.1926 21.1954C57.6832 21.9023 57.0594 22.3804 56.4876 22.6923C56.0613 22.8794 55.5935 22.973 55.084 22.973C54.6266 22.973 54.2003 22.8898 53.7948 22.7339C53.3894 22.5779 53.0359 22.3493 52.7448 22.0686C52.4953 21.8191 52.2873 21.5177 52.121 21.1746C52.0794 21.0811 52.0378 20.9771 51.9858 20.8732C51.8091 20.4262 51.7259 19.9584 51.7259 19.4802C51.7259 18.763 51.9026 18.1185 52.2561 17.5364C52.6096 16.9543 53.0983 16.5073 53.7325 16.1746L57.9535 20.9147C58.307 20.4262 58.5981 19.8752 58.8268 19.3035C57.0802 17.2869 55.3855 15.3326 55.3855 15.3326C55.5727 15.2287 55.9158 15.0312 56.4148 14.7713C57.1218 14.3971 57.6312 14.0229 57.9535 13.6382C58.2654 13.2536 58.4213 12.8066 58.4213 12.3181C58.4213 11.6424 58.1094 11.0915 57.496 10.6549C56.893 10.2183 56.1029 10 55.1568 10C54.429 10 53.8052 10.1247 53.275 10.3742C52.7552 10.6237 52.3601 10.9875 52.0898 11.4657C51.8715 11.8295 51.7675 12.1933 51.7675 12.5676C51.7675 13.1601 51.9962 13.8358 52.4745 14.5842C52.672 14.9064 53.0151 15.3534 53.4829 15.9148L53.2958 16.0187C52.6616 16.3617 52.1626 16.6632 51.7987 16.9231C51.6947 16.9958 51.5907 17.079 51.4972 17.1518C50.26 18.0145 49.7817 18.8046 49.3555 19.5634C49.1371 20.1143 48.8564 20.6029 48.4198 21.1642C47.9831 21.7463 47.4841 22.1621 46.9227 22.422C46.3612 22.6819 45.6959 22.8066 44.9057 22.8066C43.9908 22.8066 43.3254 22.5572 42.92 22.0582C42.7328 21.8295 42.5977 21.5488 42.5249 21.2266C42.4521 20.9043 42.4209 20.4262 42.4209 19.8025V10.3015H43.5749C44.4067 10.3015 45.0825 10.3742 45.6231 10.5197C46.6004 10.79 47.4529 11.3513 48.1599 12.2037C48.6693 12.817 49.0644 13.5343 49.3347 14.3451C49.605 15.1663 49.7505 16.0187 49.7505 16.9231C49.7505 17.37 49.7194 17.869 49.6466 18.2848C50.1352 17.5779 51.2477 16.7152 52.017 16.3513C51.9234 15.4678 51.6947 14.4387 51.31 13.6694C50.811 12.6507 50.1144 11.8191 49.2203 11.185C48.295 10.5197 47.1514 10.1351 45.7998 10.0416C45.4879 10.0104 44.7394 10 43.5749 10H38.3143C38.9173 10.0312 39.3747 10.395 39.6866 10.6549C39.9361 10.8628 40.1025 11.1331 40.1856 11.4553C40.2688 11.7775 40.3104 12.2973 40.3104 12.9938V20.0416C40.3104 20.6964 40.2688 21.1746 40.196 21.4865C40.1233 21.7983 39.9881 22.0582 39.7906 22.2661C39.6138 22.4532 39.3402 22.5857 39.1876 22.6715C39.0349 22.7573 38.6677 23.0249 38.2935 23.0457H45.3632C46.1845 23.0457 46.9954 22.973 47.7856 22.8274C48.6901 22.6611 49.4698 22.2973 50.1248 21.7359C50.2912 22.027 50.5095 22.2869 50.7798 22.526C51.1437 22.8586 51.7259 23.1185 52.2977 23.3056C52.3081 23.3056 52.3289 23.316 52.3393 23.316C52.9007 23.4927 53.4933 23.5863 54.0963 23.5863C54.1275 23.5863 54.1587 23.5863 54.1899 23.5863C56.394 23.5863 57.9743 23.0249 59.1075 22.2141C59.1075 22.2141 59.1179 22.2037 59.1387 22.1829C59.3466 22.3804 59.5546 22.5468 59.7625 22.7027C60.0744 22.9418 60.4279 23.1185 60.8126 23.2536C61.1972 23.3888 61.5715 23.4511 61.925 23.4511C62.9855 23.4511 63.682 22.9106 64.0043 21.8295C64.0355 21.7463 64.0667 21.6632 64.0875 21.58C63.9419 21.9231 63.7469 22.0285 63.4013 22.2453C63.0557 22.4621 62.9855 22.474 62.7048 22.474C62.4448 22.474 62.1849 22.4012 61.9042 22.2453C61.6339 22.0998 61.3116 21.8503 60.9477 21.528C60.7814 21.3721 60.5942 21.1954 60.3967 20.9875C61.6755 19.3555 61.925 17.4324 61.9562 16.684H61.9666V10.3015H63.1206C63.9523 10.3015 64.6281 10.3742 65.1688 10.5197C66.146 10.79 66.9986 11.3513 67.7055 12.2037C68.215 12.817 68.61 13.5343 68.8804 14.3451C69.1507 15.1663 69.2962 16.0187 69.2962 16.9231C69.2962 17.7443 69.1819 18.5135 68.9531 19.2308C68.7244 19.9584 68.3917 20.5925 67.9654 21.1538C67.5288 21.7359 67.0297 22.1517 66.4683 22.4116C65.9069 22.6715 64.8246 22.7027 64.4514 22.7962C64.0782 22.8898 63.7652 23.0457 63.7236 23.0457H64.94C65.7614 23.0457 66.5723 22.973 67.3624 22.8274C68.4229 22.6299 69.3066 22.1725 70.0136 21.4449C70.5126 20.9251 70.9077 20.2806 71.1988 19.501C71.4795 18.7214 71.6251 17.8898 71.6251 17.0062C71.6251 15.8004 71.3755 14.6881 70.8869 13.6694ZM53.2438 12.6195C53.1087 12.3493 53.0463 12.0686 53.0463 11.7983C53.0463 11.341 53.2126 10.9667 53.5349 10.6757C53.8676 10.3846 54.2939 10.2495 54.8345 10.2495C55.4583 10.2495 55.9469 10.4366 56.3108 10.8108C56.6747 11.185 56.8618 11.6944 56.8618 12.3285C56.8618 12.869 56.7267 13.3784 56.4564 13.8461C56.3212 14.0956 56.1549 14.3035 55.9781 14.4906C55.8014 14.6674 55.5311 14.8753 55.1672 15.1143C54.7513 14.657 54.3563 14.21 54.0028 13.7422C53.6285 13.2744 53.379 12.8898 53.2438 12.6195Z" fill="#D1B87C"/>
</svg>
