<svg version="1.1" id="Слой_1" xmlns="http://www.w3.org/2000/svg" xmlns:xlink="http://www.w3.org/1999/xlink" x="0px" y="0px"
	 width="641.968px" height="334.39px" viewBox="0 0 641.968 334.39" enable-background="new 0 0 641.968 334.39"
	 xml:space="preserve">
<g>
	<defs>
		<path id="SVGID_1_" d="M185.477,144.688l-8.716-15.096c-1.877-3.254-6.125-5.707-9.883-5.707h-17.023l-6.221-10.786
			c-0.076-0.133-0.131-0.248-0.166-0.34c0.098-0.016,0.223-0.027,0.377-0.027h32.85c1.834,0,4.34,1.445,5.258,3.035l16.459,28.506
			c0.082,0.143,0.163,0.285,0.243,0.424L185.477,144.688z M152.933,129.225h13.945c1.834,0,4.34,1.446,5.257,3.035l7.173,12.424
			l-13.965-0.009c-1.834,0-4.34-1.449-5.256-3.039L152.933,129.225z M189.846,162.933c0.075,0.13,0.134,0.28,0.196,0.424
			l-39.271-0.025l-19.647-34.076c0.11-0.009,0.228-0.03,0.335-0.03h15.309l8.695,15.078c1.877,3.254,6.123,5.709,9.879,5.711
			l17.053,0.011L189.846,162.933z M189.846,169.003l-7.419,12.848l-17.145-0.013c-3.755,0-8.002,2.45-9.883,5.698l-8.773,15.175
			h-15.17c-0.112,0-0.233-0.021-0.35-0.032l19.66-34.009l39.218,0.025C189.94,168.799,189.901,168.909,189.846,169.003z
			 M152.8,202.711l7.227-12.501c0.918-1.588,3.424-3.031,5.26-3.031l14.059,0.011l-7.21,12.488
			c-0.919,1.589-3.423,3.035-5.257,3.035H152.8V202.711z M198.106,187.2c0.154,0,0.279,0.013,0.379,0.028
			c-0.035,0.093-0.089,0.207-0.166,0.34l-16.425,28.445c-0.917,1.59-3.422,3.035-5.257,3.035h-32.865
			c-0.151,0-0.275-0.011-0.372-0.026c0.036-0.093,0.087-0.205,0.163-0.335l6.15-10.637h17.166c3.756,0,8.006-2.452,9.882-5.705
			l8.751-15.154L198.106,187.2z M126.2,199.676l-6.669-11.548l9.495-16.423c1.879-3.252,1.881-8.156,0.005-11.411l-9.501-16.48
			l6.672-11.555c0.075-0.13,0.176-0.256,0.27-0.383l19.674,34.121l-19.684,34.047C126.372,199.923,126.273,199.802,126.2,199.676z
			 M108.489,169.003c-0.916-1.588-0.916-4.48,0-6.068l7.955-13.777l7.961,13.805c0.918,1.59,0.916,4.482-0.003,6.07l-7.952,13.756
			L108.489,169.003z M107.938,197.509c-0.08,0.139-0.158,0.276-0.239,0.411c-0.078-0.135-0.156-0.272-0.238-0.411L91,169.001
			c-0.917-1.588-0.917-4.48,0-6.07l16.461-28.506c0.082-0.143,0.163-0.283,0.243-0.422c0.08,0.139,0.162,0.279,0.244,0.422
			l5.414,9.387l-9.498,16.451c-1.878,3.252-1.878,8.158,0,11.409l9.5,16.45L107.938,197.509z M203.036,141.603l-16.459-28.506
			c-1.877-3.254-6.125-5.707-9.883-5.707h-32.85c-2.301,0-4.174,0.954-5.136,2.619s-0.853,3.763,0.298,5.757l4.68,8.12h-12.229
			c-3.757,0-8.004,2.453-9.883,5.706l-5.129,8.881l-3.871-6.713c-3.291-5.707-3.291-5.707-4.869-5.707c-1.576,0-1.576,0-4.871,5.706
			l-16.459,28.506c-1.878,3.252-1.878,8.158,0,11.411l16.461,28.506c3.294,5.705,3.294,5.705,4.862,5.705
			c1.567,0,1.567,0,4.864-5.702l3.885-6.718l5.129,8.881c1.878,3.253,6.126,5.705,9.883,5.705h12.083l-4.603,7.963
			c-1.152,1.994-1.262,4.093-0.303,5.756c0.96,1.666,2.832,2.62,5.135,2.62h32.865c3.756,0,8.006-2.453,9.882-5.705l16.426-28.445
			c1.149-1.994,1.261-4.095,0.299-5.758c-0.96-1.666-2.833-2.62-5.134-2.622l-9.518-0.007l5.878-10.181
			c1.878-3.253,1.878-8.157,0-11.411l-5.909-10.234l10.131,0.007c0.022,0,0.044,0,0.067,0c5.923,0,5.929-0.003,6.728-1.271
			l0.105-0.18C206.296,147.251,206.296,147.251,203.036,141.603z"/>
	</defs>
	<clipPath id="SVGID_2_">
		<use xlink:href="#SVGID_1_"  overflow="visible"/>
	</clipPath>
	<g clip-path="url(#SVGID_2_)">
		<defs>
			<rect id="SVGID_3_" x="84.968" y="107.39" width="561" height="117"/>
		</defs>
		<clipPath id="SVGID_4_">
			<use xlink:href="#SVGID_3_"  overflow="visible"/>
		</clipPath>
		<rect x="79.968" y="102.39" clip-path="url(#SVGID_4_)" fill="#0092FF" width="131" height="127"/>
	</g>
</g>
<g>
	<defs>
		<path id="SVGID_5_" d="M533.687,189.821c3.492,0,5.422,1.408,5.734,4.249h-2.685c-0.209-0.729-0.521-1.225-0.966-1.512
			c-0.468-0.312-1.198-0.469-2.138-0.469c-0.833,0-1.457,0.104-1.876,0.365c-0.495,0.261-0.73,0.678-0.73,1.199
			c0,0.47,0.365,0.859,1.095,1.199c0.47,0.209,1.356,0.47,2.713,0.809c1.537,0.364,2.685,0.808,3.413,1.277
			c1.069,0.677,1.617,1.616,1.617,2.814c0,2.842-2.007,4.275-5.996,4.275c-3.702,0-5.684-1.591-5.995-4.718h2.711
			c0.157,0.911,0.495,1.563,0.964,1.929c0.469,0.339,1.2,0.522,2.243,0.522c2.137,0,3.232-0.628,3.232-1.826
			c0-0.652-0.418-1.173-1.2-1.539c-0.417-0.208-1.329-0.468-2.711-0.781c-1.59-0.364-2.711-0.755-3.336-1.173
			c-1.043-0.65-1.564-1.563-1.564-2.71c0-1.226,0.497-2.189,1.512-2.869C530.741,190.161,532.071,189.821,533.687,189.821z
			 M520.132,189.821c3.491,0,5.421,1.408,5.733,4.249h-2.685c-0.21-0.729-0.521-1.225-0.965-1.512
			c-0.468-0.312-1.2-0.469-2.138-0.469c-0.832,0-1.459,0.104-1.875,0.365c-0.496,0.261-0.731,0.678-0.731,1.199
			c0,0.47,0.367,0.859,1.096,1.199c0.47,0.209,1.355,0.47,2.711,0.809c1.539,0.364,2.686,0.808,3.414,1.277
			c1.069,0.677,1.616,1.616,1.616,2.814c0,2.842-2.007,4.275-5.995,4.275c-3.701,0-5.683-1.591-5.997-4.718h2.712
			c0.158,0.911,0.497,1.563,0.966,1.929c0.469,0.339,1.198,0.522,2.241,0.522c2.139,0,3.232-0.628,3.232-1.826
			c0-0.652-0.416-1.173-1.199-1.539c-0.416-0.208-1.33-0.468-2.71-0.781c-1.592-0.364-2.713-0.755-3.337-1.173
			c-1.044-0.65-1.564-1.563-1.564-2.71c0-1.226,0.495-2.189,1.511-2.869C517.187,190.161,518.515,189.821,520.132,189.821z
			 M506.186,192.09c-1.042,0-1.851,0.287-2.479,0.913c-0.571,0.6-0.963,1.46-1.12,2.606h7.273
			C509.599,193.265,508.375,192.09,506.186,192.09z M506.108,189.821c2.188,0,3.884,0.73,5.029,2.244
			c1.043,1.354,1.59,3.232,1.616,5.629h-10.217c0.103,1.305,0.442,2.319,1.067,3.025c0.626,0.678,1.486,1.043,2.581,1.043
			c0.963,0,1.747-0.237,2.346-0.68c0.469-0.363,0.858-0.964,1.225-1.745h2.764c-0.313,1.25-0.912,2.319-1.851,3.153
			c-1.174,1.017-2.66,1.538-4.456,1.538c-1.982,0-3.573-0.625-4.72-1.852c-1.252-1.303-1.878-3.049-1.878-5.265
			c0-2.008,0.574-3.676,1.772-5.031C502.537,190.501,504.126,189.821,506.108,189.821z M492.213,189.821
			c3.337,0,5.03,1.826,5.03,5.527v8.316h-2.762v-8.081c0-2.295-1.069-3.441-3.155-3.441c-0.781,0-1.485,0.261-2.058,0.834
			c-0.628,0.626-1.019,1.486-1.121,2.58v8.108h-2.765v-13.478h2.765v1.669c0.521-0.678,1.121-1.173,1.798-1.512
			C490.623,189.979,491.379,189.821,492.213,189.821z M478.893,190.188h2.763v13.478h-2.763V190.188z M480.273,184.791
			c0.549,0,1.018,0.156,1.382,0.522c0.365,0.34,0.548,0.782,0.548,1.329c0,0.546-0.208,0.989-0.573,1.354
			c-0.366,0.34-0.834,0.522-1.356,0.522c-0.547,0-0.989-0.183-1.354-0.522c-0.365-0.365-0.547-0.833-0.547-1.354
			c0-0.547,0.182-0.989,0.547-1.329C479.284,184.947,479.727,184.791,480.273,184.791z M469.795,189.821
			c3.494,0,5.422,1.408,5.735,4.249h-2.685c-0.209-0.729-0.521-1.225-0.965-1.512c-0.471-0.312-1.198-0.469-2.138-0.469
			c-0.834,0-1.461,0.104-1.878,0.365c-0.495,0.261-0.729,0.678-0.729,1.199c0,0.47,0.365,0.859,1.095,1.199
			c0.47,0.209,1.355,0.47,2.71,0.809c1.539,0.364,2.687,0.808,3.418,1.277c1.066,0.677,1.615,1.616,1.615,2.814
			c0,2.842-2.008,4.275-5.996,4.275c-3.701,0-5.683-1.591-5.996-4.718h2.712c0.156,0.911,0.496,1.563,0.964,1.929
			c0.47,0.339,1.199,0.522,2.242,0.522c2.138,0,3.23-0.628,3.23-1.826c0-0.652-0.415-1.173-1.198-1.539
			c-0.416-0.208-1.328-0.468-2.711-0.781c-1.589-0.364-2.71-0.755-3.336-1.173c-1.044-0.65-1.564-1.563-1.564-2.71
			c0-1.226,0.495-2.189,1.513-2.869C466.85,190.161,468.178,189.821,469.795,189.821z M449.723,190.188h2.764v8.21
			c0,1.147,0.235,1.981,0.729,2.504c0.47,0.521,1.251,0.808,2.32,0.808c0.729,0,1.382-0.312,2.007-0.886
			c0.626-0.601,1.069-1.407,1.304-2.398v-8.237h2.763v13.478h-2.763v-1.825c-1.146,1.459-2.555,2.189-4.249,2.189
			c-3.259,0-4.875-1.824-4.875-5.447V190.188z M434.917,195.271v6.048h5.266c1.199,0,2.137-0.208,2.814-0.573
			c0.835-0.496,1.278-1.278,1.278-2.348c0-1.094-0.34-1.901-0.991-2.398c-0.651-0.493-1.669-0.729-3.023-0.729H434.917z
			 M434.917,187.398v5.551h4.901c1.303,0,2.241-0.233,2.814-0.677c0.572-0.469,0.86-1.199,0.86-2.189
			c0-0.939-0.288-1.617-0.86-2.033c-0.573-0.442-1.512-0.651-2.765-0.651H434.917z M432.076,185.052h8.498
			c1.825,0,3.231,0.417,4.274,1.304c0.991,0.833,1.486,1.955,1.486,3.39c0,1.041-0.262,1.927-0.782,2.658
			c-0.521,0.677-1.227,1.199-2.164,1.538c1.224,0.234,2.164,0.73,2.788,1.486c0.628,0.756,0.94,1.771,0.94,3.023
			c0,1.875-0.653,3.232-1.931,4.118c-1.094,0.729-2.634,1.096-4.612,1.096h-8.498V185.052z M419.693,189.821
			c0.679,0,1.276,0.106,1.746,0.34v2.764c-0.679-0.209-1.329-0.287-1.955-0.287c-0.835,0-1.59,0.339-2.241,1.017
			c-0.703,0.73-1.044,1.694-1.044,2.867v7.144h-2.762v-13.478h2.762v2.033c0.341-0.729,0.784-1.276,1.304-1.642
			C418.129,190.057,418.859,189.821,419.693,189.821z M404.08,192.09c-1.278,0-2.27,0.496-2.973,1.513
			c-0.627,0.86-0.913,1.981-0.913,3.337c0,1.354,0.286,2.45,0.913,3.31c0.703,0.991,1.694,1.514,2.973,1.514
			c1.277,0,2.267-0.522,2.996-1.514c0.625-0.887,0.938-1.981,0.938-3.31c0-1.355-0.313-2.477-0.938-3.337
			C406.347,192.586,405.357,192.09,404.08,192.09z M404.08,189.821c2.033,0,3.675,0.68,4.898,2.035
			c1.199,1.329,1.825,3.024,1.825,5.083c0,2.032-0.599,3.728-1.798,5.03c-1.251,1.356-2.893,2.06-4.926,2.06
			c-2.036,0-3.677-0.703-4.929-2.06c-1.197-1.303-1.799-2.998-1.799-5.03c0-2.059,0.602-3.754,1.825-5.083
			C400.403,190.501,402.044,189.821,404.08,189.821z M393.365,185.052h2.814v2.347h-2.425c-0.442,0-0.78,0.105-0.989,0.339
			c-0.208,0.208-0.313,0.573-0.313,1.068v1.382h3.545v2.268h-3.545v11.21h-2.738v-11.21h-3.101v-2.268h3.101v-1.46
			c0-1.146,0.313-2.06,0.939-2.685C391.279,185.365,392.166,185.052,393.365,185.052z M371.182,189.821
			c3.336,0,5.031,1.826,5.031,5.527v8.316h-2.764v-8.081c0-2.295-1.069-3.441-3.153-3.441c-0.782,0-1.487,0.261-2.06,0.834
			c-0.626,0.626-1.018,1.486-1.12,2.58v8.108h-2.764v-13.478h2.764v1.669c0.521-0.678,1.12-1.173,1.798-1.512
			C369.592,189.979,370.347,189.821,371.182,189.821z M357.86,190.188h2.764v13.478h-2.764V190.188z M359.243,184.791
			c0.547,0,1.016,0.156,1.381,0.522c0.365,0.34,0.547,0.782,0.547,1.329c0,0.546-0.208,0.989-0.572,1.354
			c-0.365,0.34-0.834,0.522-1.355,0.522c-0.548,0-0.99-0.183-1.355-0.522c-0.365-0.365-0.548-0.833-0.548-1.354
			c0-0.547,0.183-0.989,0.548-1.329C358.253,184.947,358.695,184.791,359.243,184.791z M351.397,197.435l-2.842,0.078
			c-2.529,0.052-3.781,0.938-3.781,2.606c0,0.522,0.21,0.938,0.652,1.278c0.418,0.337,0.99,0.521,1.694,0.521
			c1.173,0,2.163-0.365,2.999-1.07c0.833-0.703,1.277-1.591,1.277-2.632V197.435z M348.528,189.821c1.982,0,3.441,0.496,4.379,1.488
			c0.809,0.859,1.227,2.109,1.227,3.753v8.603h-2.555v-1.902c-0.521,0.676-1.174,1.223-1.955,1.614
			c-0.887,0.418-1.93,0.652-3.128,0.652c-1.407,0-2.503-0.364-3.285-1.067c-0.86-0.705-1.276-1.617-1.276-2.739
			c0-1.512,0.599-2.685,1.798-3.491c1.095-0.782,2.659-1.175,4.64-1.226l3.025-0.078v-0.547c0-1.878-1.018-2.815-3.051-2.815
			c-0.861,0-1.564,0.155-2.086,0.469c-0.625,0.365-1.017,0.911-1.172,1.668l-2.738-0.235c0.287-1.459,1.018-2.554,2.164-3.231
			C345.505,190.108,346.86,189.821,348.528,189.821z M327.544,184.688h2.764v7.402c0.496-0.78,1.122-1.382,1.877-1.745
			c0.678-0.365,1.434-0.523,2.294-0.523c1.616,0,2.842,0.471,3.675,1.435c0.783,0.913,1.174,2.268,1.174,4.042v8.367h-2.764v-7.899
			c0-1.199-0.261-2.085-0.729-2.711c-0.522-0.651-1.33-0.965-2.373-0.965c-0.938,0-1.693,0.365-2.268,1.121
			c-0.6,0.756-0.887,1.72-0.887,2.894v7.561h-2.764V184.688z M318.995,189.821c1.72,0,3.102,0.393,4.145,1.174
			c1.042,0.834,1.721,2.085,1.98,3.755h-2.736c-0.183-0.913-0.548-1.591-1.121-2.008c-0.573-0.443-1.33-0.652-2.268-0.652
			c-1.147,0-2.033,0.418-2.686,1.278c-0.678,0.834-0.99,2.033-0.99,3.545s0.313,2.712,0.964,3.57
			c0.601,0.835,1.486,1.279,2.685,1.279c2.061,0,3.207-1.043,3.468-3.077h2.737c-0.313,1.798-1.016,3.154-2.06,4.041
			c-1.042,0.859-2.45,1.303-4.171,1.303c-2.059,0-3.649-0.678-4.797-2.033c-1.12-1.304-1.668-2.972-1.668-5.057
			c0-2.034,0.548-3.702,1.643-5.006C315.293,190.525,316.909,189.821,318.995,189.821z M298.739,184.688h2.764v11.053l5.84-5.553
			h3.571l-5.97,5.553l6.49,7.925h-3.545l-4.849-6.152l-1.538,1.433v4.72h-2.764V184.688z M290.19,189.821
			c1.721,0,3.102,0.393,4.145,1.174c1.043,0.834,1.721,2.085,1.98,3.755h-2.736c-0.183-0.913-0.548-1.591-1.121-2.008
			c-0.574-0.443-1.329-0.652-2.268-0.652c-1.147,0-2.033,0.418-2.686,1.278c-0.678,0.834-0.99,2.033-0.99,3.545
			s0.313,2.712,0.965,3.57c0.6,0.835,1.485,1.279,2.684,1.279c2.06,0,3.207-1.043,3.468-3.077h2.736
			c-0.312,1.798-1.016,3.154-2.06,4.041c-1.041,0.859-2.449,1.303-4.169,1.303c-2.06,0-3.649-0.678-4.797-2.033
			c-1.12-1.304-1.669-2.972-1.669-5.057c0-2.034,0.549-3.702,1.643-5.006C286.489,190.525,288.104,189.821,290.19,189.821z
			 M274.837,192.09c-1.277,0-2.27,0.496-2.973,1.513c-0.625,0.86-0.912,1.981-0.912,3.337c0,1.354,0.287,2.45,0.912,3.31
			c0.703,0.991,1.695,1.514,2.973,1.514c1.276,0,2.268-0.522,2.998-1.514c0.625-0.887,0.938-1.981,0.938-3.31
			c0-1.355-0.313-2.477-0.938-3.337C277.104,192.586,276.113,192.09,274.837,192.09z M274.837,189.821c2.033,0,3.676,0.68,4.9,2.035
			c1.199,1.329,1.824,3.024,1.824,5.083c0,2.032-0.6,3.728-1.799,5.03c-1.25,1.356-2.893,2.06-4.926,2.06s-3.676-0.703-4.928-2.06
			c-1.199-1.303-1.799-2.998-1.799-5.03c0-2.059,0.6-3.754,1.826-5.083C271.161,190.501,272.804,189.821,274.837,189.821z
			 M262.429,184.688h2.763v18.978h-2.763V184.688z M247.31,195.271v6.048h5.266c1.198,0,2.137-0.208,2.814-0.573
			c0.834-0.496,1.277-1.278,1.277-2.348c0-1.094-0.34-1.901-0.99-2.398c-0.652-0.493-1.668-0.729-3.023-0.729H247.31z
			 M247.31,187.398v5.551h4.9c1.303,0,2.242-0.233,2.814-0.677c0.574-0.469,0.861-1.199,0.861-2.189
			c0-0.939-0.287-1.617-0.861-2.033c-0.572-0.442-1.512-0.651-2.762-0.651H247.31z M244.468,185.052h8.498
			c1.824,0,3.232,0.417,4.275,1.304c0.99,0.833,1.485,1.955,1.485,3.39c0,1.041-0.261,1.927-0.782,2.658
			c-0.521,0.677-1.225,1.199-2.164,1.538c1.227,0.234,2.164,0.73,2.79,1.486s0.938,1.771,0.938,3.023
			c0,1.875-0.651,3.232-1.929,4.118c-1.095,0.729-2.634,1.096-4.614,1.096h-8.498V185.052z"/>
	</defs>
	<clipPath id="SVGID_6_">
		<use xlink:href="#SVGID_5_"  overflow="visible"/>
	</clipPath>
</g>
</svg>
